# xmcd
# 
# Track frame offsets:
#     150
#     10920
#     21955
#     32994
#     42707
#     54666
#     65799
#     74625
#     87770
#     99007
#     109310
#     120322
#     131182
#     141096
#     150998
#     162009
#     173473
#     185085
#     195108
#     205128
#     214617
#     226463
# 
# Disc length: 3172
# 
# Revision: 0
# Processed by: cddbd v1.5.2PL0 Copyright (c) Steve Scherf et al.
# Submitted via: fre:ac v1.0.31
# 
DISCID=300c6216
DTITLE=Roy Buchanan - After Hours
DYEAR=0
DGENRE=Blues
TTITLE0=PRETTY PLEASE
TTITLE1=MY BABE
TTITLE2=WILD GUY
TTITLE3=BUTTERCUP
TTITLE4=ROUTE 66
TTITLE5=THE KICK STEP
TTITLE6=TWIN EXHAUST
TTITLE7=CHA CHA CHU
TTITLE8=IT’LL BE MY FIRST TIME
TTITLE9=HE WILL COME BACK TO ME
TTITLE10=THE JAM – part one
TTITLE11=THE JAM – part two
TTITLE12=WHEN THE SAINTS GO TWISTIN’ IN
TTITLE13=RUBY BABY
TTITLE14=THE SHUFFLE
TTITLE15=GOTTA GO
TTITLE16=POTATO PEELER
TTITLE17=NEED YOUR LOVIN’
TTITLE18=HOT TODDY
TTITLE19=MY BABY WALKS ALL OVER ME
TTITLE20=MY BLUE HEAVEN
TTITLE21=AFTER HOURS
EXTD=CD1
EXTT0=
EXTT1=
EXTT2=
EXTT3=
EXTT4=
EXTT5=
EXTT6=
EXTT7=
EXTT8=
EXTT9=
EXTT10=
EXTT11=
EXTT12=
EXTT13=
EXTT14=
EXTT15=
EXTT16=
EXTT17=
EXTT18=
EXTT19=
EXTT20=
EXTT21=
PLAYORDER=
